<svg width="96" height="116" viewBox="0 0 96 116" fill="none" xmlns="http://www.w3.org/2000/svg">
<path d="M65.7454 47.53C77.6654 37.09 91.8554 22.14 95.6954 7.42999C96.6654 3.70999 93.9054 0.0599976 90.0554 0.0599976L5.9154 0C2.0654 0 -0.694559 3.63999 0.265441 7.35999C4.08544 22.07 18.2654 37.05 30.1654 47.5C36.2054 52.8 36.1854 62.25 30.1454 67.54C18.2254 77.98 4.03543 92.93 0.195434 107.64C-0.774566 111.36 1.98545 115.01 5.83545 115.01L89.9754 115.07C93.8254 115.07 96.5854 111.43 95.6254 107.71C91.8054 93 77.6254 78.02 65.7254 67.57C59.6854 62.27 59.7054 52.82 65.7454 47.53Z" fill="#FFBD23"/>
</svg>
